<?xml version="1.0" standalone="no"?>
<!DOCTYPE svg PUBLIC "-//W3C//DTD SVG 20010904//EN"
 "http://www.w3.org/TR/2001/REC-SVG-20010904/DTD/svg10.dtd">
<svg version="1.0" xmlns="http://www.w3.org/2000/svg"
 width="1200.000000pt" height="1200.000000pt" viewBox="0 0 1200.000000 1200.000000"
 preserveAspectRatio="xMidYMid meet">
<metadata>
Created by potrace 1.16, written by Peter Selinger 2001-2019
</metadata>
<g transform="translate(0.000000,1200.000000) scale(0.100000,-0.100000)"
fill="#0A0E0C" stroke="none">
<path d="M2570 11782 c-33 -15 -82 -58 -102 -90 -11 -18 -26 -38 -33 -46 -7
-7 -26 -31 -42 -53 -15 -22 -63 -86 -106 -144 -43 -57 -87 -115 -97 -129 -10
-14 -32 -43 -49 -65 -17 -22 -67 -89 -111 -150 -44 -60 -91 -123 -103 -139
-22 -29 -191 -257 -227 -306 -93 -126 -463 -621 -479 -640 -41 -51 -82 -107
-117 -160 -20 -30 -51 -71 -68 -91 -17 -20 -52 -65 -77 -100 -25 -35 -131
-179 -236 -319 -256 -345 -254 -342 -260 -388 -7 -52 1 -81 29 -115 50 -57 45
-57 678 -57 l580 0 0 -842 c0 -802 5 -991 30 -1088 5 -19 17 -78 26 -130 23
-129 110 -419 144 -477 5 -10 24 -49 41 -88 16 -38 33 -72 37 -75 4 -3 21 -34
37 -69 17 -35 35 -69 40 -75 6 -6 26 -36 43 -66 32 -54 67 -103 149 -212 65
-86 222 -249 788 -822 105 -105 476 -481 825 -834 348 -353 639 -642 644 -642
13 0 1236 1231 1236 1243 0 4 -75 83 -167 175 -861 868 -1823 1843 -1879 1904
-125 135 -205 307 -245 523 -19 105 -20 144 -17 843 l2 732 583 0 c554 0 586
1 621 19 61 32 92 107 73 178 -6 22 -36 73 -67 114 -30 41 -64 85 -74 99 -10
14 -74 99 -142 190 -67 91 -131 177 -140 191 -9 14 -23 32 -30 40 -8 8 -29 37
-48 64 -18 28 -37 52 -41 55 -3 3 -19 23 -35 46 -16 23 -41 56 -55 75 -57 75
-445 594 -459 615 -8 12 -35 48 -60 80 -24 33 -60 82 -79 109 -19 28 -37 52
-41 55 -8 7 -86 110 -129 171 -18 27 -37 49 -42 49 -5 0 -9 5 -9 10 0 6 -19
36 -42 67 -24 30 -53 70 -66 87 -12 17 -28 38 -35 46 -14 18 -95 126 -182 245
-33 44 -63 85 -67 90 -5 6 -54 70 -109 143 -75 99 -109 136 -136 147 -37 16
-78 18 -103 7z M8665 11250 c-143 -10 -372 -43 -441 -63 -27 -8 -87 -25 -134
-38 -102 -27 -265 -87 -363 -133 -40 -19 -88 -41 -107 -50 -31 -14 -115 -60
-219 -121 -18 -11 -68 -44 -110 -74 -190 -136 -307 -244 -762 -704 -338 -342
-1052 -1062 -2015 -2029 -450 -452 -569 -577 -586 -615 -28 -63 -28 -182 0
-271 26 -81 77 -143 328 -397 108 -110 316 -321 462 -468 l265 -268 24 23 c33
30 502 503 739 745 104 106 457 463 784 793 327 331 696 703 819 828 917 931
891 906 1042 989 41 23 90 45 109 51 19 6 69 21 110 33 63 19 99 23 226 23 90
1 161 -3 175 -10 13 -6 53 -18 89 -27 110 -26 227 -87 320 -166 76 -65 200
-198 200 -215 0 -5 10 -23 23 -40 35 -47 104 -213 124 -297 38 -165 17 -456
-43 -587 -13 -29 -24 -55 -24 -58 0 -13 -36 -82 -68 -129 -68 -102 -120 -156
-652 -697 l-285 -290 -537 541 c-296 298 -543 541 -549 541 -7 0 -181 -171
-388 -381 -836 -847 -840 -851 -831 -868 5 -9 250 -258 543 -554 l534 -539
-146 -148 c-80 -81 -364 -369 -631 -640 -267 -271 -666 -675 -888 -899 -222
-223 -629 -635 -905 -915 -864 -876 -911 -922 -972 -967 -33 -24 -62 -47 -65
-50 -16 -20 -198 -101 -270 -121 -72 -19 -109 -23 -240 -23 -197 0 -277 18
-434 97 -274 137 -471 404 -522 706 -20 115 -15 290 11 402 32 135 104 289
187 397 7 9 141 146 297 304 156 158 282 292 279 299 -2 6 -164 174 -360 373
-196 199 -471 479 -611 622 l-256 260 -233 -235 c-246 -247 -421 -434 -460
-487 -13 -18 -45 -61 -73 -97 -87 -114 -219 -329 -256 -416 -13 -30 -26 -57
-29 -60 -4 -3 -22 -43 -40 -90 -18 -47 -37 -90 -41 -95 -4 -6 -24 -64 -43
-129 -20 -65 -38 -122 -41 -126 -2 -4 -13 -49 -24 -101 -101 -469 -103 -848
-5 -1274 30 -129 93 -334 125 -402 10 -24 19 -45 19 -48 0 -13 125 -262 145
-290 12 -16 25 -38 28 -47 5 -15 54 -89 147 -222 89 -128 333 -383 475 -494
44 -35 87 -69 95 -75 21 -17 207 -138 250 -164 74 -44 208 -111 265 -133 33
-13 69 -29 80 -36 11 -7 70 -27 130 -44 61 -18 115 -36 120 -40 20 -15 176
-49 420 -91 28 -5 152 -12 276 -15 220 -7 393 3 499 26 25 6 103 22 174 36 72
14 144 31 160 38 17 8 72 26 121 41 50 16 123 43 163 62 41 18 77 33 81 33 13
0 220 110 286 152 87 56 83 53 164 110 40 29 83 60 95 68 11 8 77 64 146 125
132 117 262 245 639 631 370 379 1181 1202 1606 1630 215 216 615 621 890 900
275 280 634 643 797 809 163 165 384 389 490 497 106 109 353 359 548 556 542
547 676 687 790 822 154 183 312 444 400 660 12 30 28 69 36 85 61 136 151
507 173 717 14 125 14 436 0 569 -15 157 -74 469 -99 524 -4 11 -20 58 -35
104 -14 47 -32 98 -39 115 -7 17 -29 67 -47 111 -89 212 -247 474 -379 629
-146 172 -294 321 -399 400 -204 154 -295 213 -475 305 -197 101 -414 177
-681 236 -163 37 -509 58 -710 45z M10137 5353 c-37 -38 -119 -122 -183 -188
-65 -66 -310 -315 -546 -552 l-430 -433 256 -257 c239 -241 368 -384 401 -443
46 -82 109 -220 127 -278 31 -103 36 -336 10 -463 -36 -176 -132 -355 -258
-484 -205 -209 -450 -307 -724 -291 -130 7 -238 34 -349 87 -162 76 -210 116
-530 436 -260 259 -306 301 -319 291 -9 -7 -31 -29 -49 -48 -153 -157 -675
-690 -828 -846 -343 -346 -338 -340 -326 -361 12 -21 566 -572 628 -623 22
-19 54 -45 70 -57 15 -12 46 -38 68 -57 22 -20 43 -36 47 -36 4 0 13 -6 21
-14 22 -22 182 -127 227 -149 14 -6 27 -14 30 -17 10 -13 217 -117 265 -135
28 -10 55 -21 60 -26 28 -21 308 -109 430 -134 44 -9 109 -23 145 -31 152 -33
563 -46 737 -24 418 54 793 182 1117 378 37 23 72 42 76 42 5 0 10 4 12 8 2 5
28 25 58 45 198 130 495 417 620 597 13 19 27 37 30 40 7 5 102 151 137 210
24 40 153 296 153 304 0 3 11 29 24 58 13 29 36 94 50 143 15 50 31 99 36 110
25 56 85 367 100 513 15 156 13 464 -5 597 -22 170 -75 434 -96 480 -5 11 -18
52 -30 90 -39 132 -155 390 -234 520 -86 142 -192 296 -221 320 -6 6 -15 17
-20 27 -22 40 -137 163 -407 431 -159 158 -295 287 -301 287 -7 0 -42 -30 -79
-67z"/>
</g>
</svg>
