<svg width="141" height="48" viewBox="0 0 141 48" fill="none" xmlns="http://www.w3.org/2000/svg">
<path d="M103.683 46.6181C103.746 46.999 103.695 47.2782 103.53 47.456C103.365 47.621 103.15 47.7416 102.883 47.8177C102.616 47.8812 102.331 47.913 102.026 47.913C101.734 47.9003 101.487 47.9003 101.283 47.913C101.042 47.9256 100.757 47.9447 100.427 47.9701C100.097 47.9828 99.7728 47.9891 99.4555 47.9891C99.1508 47.9891 98.8715 47.9637 98.6176 47.913C98.3637 47.8622 98.1924 47.7733 98.1035 47.6464C98.04 47.5575 97.9956 47.3544 97.9702 47.037C97.9575 46.7197 97.9512 46.3325 97.9512 45.8755C97.9512 45.4058 97.9575 44.8853 97.9702 44.3141C97.9956 43.7428 98.021 43.1653 98.0464 42.5813C98.0718 41.9847 98.0908 41.4071 98.1035 40.8485C98.1289 40.29 98.1416 39.7822 98.1416 39.3252C98.1543 38.6524 98.1606 37.9859 98.1606 37.3258C98.1606 36.6657 98.186 35.9993 98.2368 35.3265C98.2368 35.2376 98.2368 35.1234 98.2368 34.9837C98.2368 34.8314 98.2495 34.6854 98.2749 34.5458C98.313 34.4061 98.3764 34.2855 98.4653 34.184C98.5542 34.0824 98.6938 34.0316 98.8842 34.0316C99.2523 34.0316 99.5253 34.1142 99.703 34.2792C99.8934 34.4442 99.9632 34.7996 99.9125 35.3455C99.8871 35.6121 99.8617 35.8342 99.8363 36.012C99.8236 36.1897 99.8109 36.3484 99.7982 36.488C99.7982 36.6149 99.7919 36.7355 99.7792 36.8498C99.7665 36.964 99.7601 37.1037 99.7601 37.2687C99.7347 38.4493 99.722 39.6235 99.722 40.7914C99.722 41.9593 99.6903 43.1335 99.6268 44.3141C99.6014 44.9488 99.7157 45.3868 99.9696 45.628C100.223 45.8565 100.649 45.9453 101.245 45.8945C101.436 45.8818 101.671 45.8565 101.95 45.8184C102.229 45.7803 102.496 45.7739 102.75 45.7993C103.004 45.8247 103.219 45.8945 103.397 46.0088C103.575 46.123 103.67 46.3262 103.683 46.6181Z" fill="#236D66"/>
<path d="M95.3343 38.6588C95.3851 39.522 95.3724 40.3916 95.2962 41.2675C95.2327 42.1307 95.1502 42.9939 95.0487 43.8572L94.9725 44.5046C94.9344 44.86 94.8709 45.2409 94.7821 45.6471C94.6932 46.0533 94.5726 46.3707 94.4203 46.5992C94.268 46.9038 94.1029 47.145 93.9252 47.3227C93.7475 47.5005 93.5507 47.6401 93.3349 47.7416C93.1191 47.8432 92.8906 47.913 92.6494 47.9511C92.4082 47.9765 92.148 47.9892 91.8687 47.9892C91.7037 47.9892 91.526 47.9701 91.3356 47.9321C91.0055 47.8559 90.7389 47.7353 90.5358 47.5703C90.3327 47.3926 90.1677 47.1894 90.0407 46.9609C89.9138 46.7197 89.8186 46.4595 89.7551 46.1802C89.6916 45.8883 89.6472 45.5963 89.6218 45.3043C89.571 44.8981 89.5393 44.4982 89.5266 44.1047C89.5139 43.7112 89.5012 43.3177 89.4885 42.9241C89.4758 42.7464 89.4695 42.5814 89.4695 42.429C89.4695 42.264 89.4631 42.099 89.4504 41.934C89.4631 41.6801 89.4695 41.4389 89.4695 41.2104C89.4822 40.9819 89.4885 40.7534 89.4885 40.5249C89.5139 39.9156 89.5393 39.3316 89.5647 38.7731C89.5901 38.2018 89.6218 37.6306 89.6599 37.0593C89.6853 36.7674 89.7361 36.4754 89.8122 36.1834C89.8884 35.8914 89.9899 35.6185 90.1169 35.3646C90.3327 34.9203 90.612 34.5966 90.9547 34.3935C91.3102 34.1777 91.691 34.0571 92.0972 34.0317C92.4654 34.0063 92.8525 34.0444 93.2588 34.146C93.665 34.2475 93.9887 34.4887 94.2299 34.8695C94.6361 35.5423 94.909 36.2088 95.0487 36.8689C95.201 37.529 95.2962 38.1257 95.3343 38.6588ZM92.0782 46.3707C92.2559 46.3707 92.3955 46.3516 92.4971 46.3135C92.5986 46.2754 92.6748 46.231 92.7256 46.1802C92.7764 46.1168 92.8144 46.0533 92.8398 45.9898C92.8652 45.9137 92.8906 45.8438 92.916 45.7804C93.1191 45.1456 93.2778 44.4665 93.392 43.7429C93.519 43.0193 93.6015 42.3021 93.6396 41.5912C93.6904 40.8676 93.7031 40.1758 93.6777 39.5157C93.6523 38.8429 93.5888 38.2462 93.4872 37.7258C93.3984 37.2053 93.2714 36.7864 93.1064 36.469C92.9541 36.139 92.77 35.9549 92.5542 35.9168C92.5161 35.8914 92.3955 35.8914 92.1924 35.9168C92.002 35.9422 91.8433 35.9866 91.7164 36.0501C91.6529 36.0755 91.5894 36.1263 91.526 36.2025C91.4625 36.2786 91.4054 36.3675 91.3546 36.469C91.3165 36.5579 91.2784 36.6531 91.2403 36.7547C91.215 36.8562 91.2023 36.9451 91.2023 37.0212C91.1642 37.7829 91.1134 38.5382 91.0499 39.2872C90.9992 40.0235 90.9674 40.7597 90.9547 41.496C90.942 41.7499 90.9484 42.0101 90.9738 42.2767C91.0118 42.5306 91.0309 42.7845 91.0309 43.0384C91.0309 43.178 91.0372 43.3113 91.0499 43.4383C91.0626 43.5652 91.0753 43.6985 91.088 43.8381C91.088 44.1428 91.1134 44.4411 91.1642 44.7331C91.215 45.0124 91.2721 45.2916 91.3356 45.5709C91.3609 45.6979 91.4435 45.8502 91.5831 46.0279C91.7354 46.1929 91.9005 46.3072 92.0782 46.3707Z" fill="#236D66"/>
<path d="M80.9329 37.0402C80.9455 36.6721 81.0154 36.323 81.1423 35.9929C81.2819 35.6629 81.4597 35.3646 81.6755 35.098C81.904 34.8314 82.1642 34.6156 82.4562 34.4506C82.7481 34.2728 83.0592 34.1522 83.3892 34.0888C84.0747 33.9745 84.6777 34.038 85.1982 34.2792C85.7313 34.5077 86.1629 34.9266 86.493 35.5359C86.6326 35.7898 86.7151 36.0818 86.7405 36.4118C86.7786 36.7419 86.7659 37.0529 86.7024 37.3449C86.6898 37.4211 86.6453 37.5036 86.5692 37.5924C86.493 37.6813 86.3978 37.7638 86.2835 37.84C86.182 37.9034 86.0741 37.9606 85.9598 38.0113C85.8456 38.0494 85.7377 38.0748 85.6361 38.0875C85.5092 38.1129 85.3695 38.1065 85.2172 38.0685C85.0776 38.0304 84.9379 37.9352 84.7983 37.7828C84.7221 37.694 84.6904 37.5607 84.7031 37.383C84.7285 37.1926 84.7348 37.0085 84.7221 36.8308C84.7221 36.653 84.6713 36.5007 84.5698 36.3738C84.4682 36.2468 84.2588 36.196 83.9414 36.2214C83.5225 36.2722 83.2242 36.4309 83.0465 36.6975C82.8814 36.9514 82.7799 37.237 82.7418 37.5543C82.7037 37.859 82.7037 38.151 82.7418 38.4303C82.7799 38.7095 82.7989 38.8936 82.7989 38.9825C82.7989 39.4648 82.7862 39.9218 82.7608 40.3535C82.7355 40.7724 82.7037 41.1913 82.6656 41.6102C82.6402 42.0164 82.6212 42.4353 82.6085 42.8669C82.5958 43.2859 82.5958 43.7302 82.6085 44.1999C82.6085 44.441 82.6593 44.7013 82.7608 44.9806C82.8624 45.2598 83.002 45.4503 83.1798 45.5518C83.294 45.6153 83.4273 45.6851 83.5796 45.7613C83.732 45.8247 83.8906 45.8755 84.0557 45.9136C84.2207 45.939 84.3794 45.939 84.5317 45.9136C84.684 45.8882 84.8173 45.8184 84.9316 45.7041C85.0458 45.5899 85.103 45.3804 85.103 45.0758C85.103 44.7711 85.0966 44.4601 85.0839 44.1427C85.0839 43.8254 85.103 43.5524 85.141 43.3239C85.1918 43.0827 85.3188 42.9748 85.5219 43.0002C85.9281 43.051 86.2201 43.1716 86.3978 43.362C86.5755 43.5524 86.6644 43.7175 86.6644 43.8571C86.6644 44.1237 86.6644 44.403 86.6644 44.6949C86.6771 44.9869 86.6707 45.2725 86.6453 45.5518C86.6199 45.8311 86.5692 46.0977 86.493 46.3516C86.4295 46.6054 86.328 46.8276 86.1883 47.018C85.9471 47.3227 85.6615 47.5512 85.3315 47.7035C85.0014 47.8558 84.646 47.951 84.2651 47.9891C83.897 48.0145 83.5225 47.9955 83.1417 47.932C82.7735 47.8685 82.4244 47.7797 82.0944 47.6654C81.8024 47.5639 81.5676 47.4179 81.3898 47.2275C81.2121 47.0244 81.0725 46.8022 80.9709 46.561C80.8821 46.3071 80.8249 46.0342 80.7996 45.7422C80.7869 45.4376 80.7932 45.1329 80.8186 44.8282C80.8313 44.6251 80.8376 44.3268 80.8376 43.9333C80.8503 43.5271 80.8567 43.0764 80.8567 42.5813C80.8694 42.0735 80.8757 41.5467 80.8757 41.0009C80.8884 40.4423 80.8948 39.9092 80.8948 39.4014C80.8948 38.8936 80.8948 38.4303 80.8948 38.0113C80.9075 37.5924 80.9202 37.2687 80.9329 37.0402Z" fill="#236D66"/>
<path d="M78.1815 38.6588C78.2322 39.522 78.2195 40.3916 78.1434 41.2675C78.0799 42.1307 77.9974 42.9939 77.8958 43.8572L77.8197 44.5046C77.7816 44.86 77.7181 45.2409 77.6292 45.6471C77.5404 46.0533 77.4198 46.3707 77.2675 46.5992C77.1151 46.9038 76.9501 47.145 76.7724 47.3227C76.5947 47.5005 76.3979 47.6401 76.1821 47.7416C75.9663 47.8432 75.7378 47.913 75.4966 47.9511C75.2554 47.9765 74.9952 47.9892 74.7159 47.9892C74.5509 47.9892 74.3731 47.9701 74.1827 47.9321C73.8527 47.8559 73.5861 47.7353 73.383 47.5703C73.1799 47.3926 73.0148 47.1894 72.8879 46.9609C72.761 46.7197 72.6657 46.4595 72.6023 46.1802C72.5388 45.8883 72.4944 45.5963 72.469 45.3043C72.4182 44.8981 72.3865 44.4982 72.3738 44.1047C72.3611 43.7112 72.3484 43.3177 72.3357 42.9241C72.323 42.7464 72.3166 42.5814 72.3166 42.429C72.3166 42.264 72.3103 42.099 72.2976 41.934C72.3103 41.6801 72.3166 41.4389 72.3166 41.2104C72.3293 40.9819 72.3357 40.7534 72.3357 40.5249C72.3611 39.9156 72.3865 39.3316 72.4119 38.7731C72.4372 38.2018 72.469 37.6306 72.5071 37.0593C72.5325 36.7674 72.5832 36.4754 72.6594 36.1834C72.7356 35.8914 72.8371 35.6185 72.9641 35.3646C73.1799 34.9203 73.4591 34.5966 73.8019 34.3935C74.1573 34.1777 74.5382 34.0571 74.9444 34.0317C75.3125 34.0063 75.6997 34.0444 76.1059 34.146C76.5121 34.2475 76.8359 34.4887 77.077 34.8695C77.4833 35.5423 77.7562 36.2088 77.8958 36.8689C78.0482 37.529 78.1434 38.1257 78.1815 38.6588ZM74.9253 46.3707C75.1031 46.3707 75.2427 46.3516 75.3443 46.3135C75.4458 46.2754 75.522 46.231 75.5728 46.1802C75.6235 46.1168 75.6616 46.0533 75.687 45.9898C75.7124 45.9137 75.7378 45.8438 75.7632 45.7804C75.9663 45.1456 76.125 44.4665 76.2392 43.7429C76.3662 43.0193 76.4487 42.3021 76.4868 41.5912C76.5375 40.8676 76.5502 40.1758 76.5248 39.5157C76.4994 38.8429 76.436 38.2462 76.3344 37.7258C76.2456 37.2053 76.1186 36.7864 75.9536 36.469C75.8013 36.139 75.6172 35.9549 75.4014 35.9168C75.3633 35.8914 75.2427 35.8914 75.0396 35.9168C74.8492 35.9422 74.6905 35.9866 74.5636 36.0501C74.5001 36.0755 74.4366 36.1263 74.3731 36.2025C74.3097 36.2786 74.2525 36.3675 74.2018 36.469C74.1637 36.5579 74.1256 36.6531 74.0875 36.7547C74.0621 36.8562 74.0494 36.9451 74.0494 37.0212C74.0114 37.7829 73.9606 38.5382 73.8971 39.2872C73.8463 40.0235 73.8146 40.7597 73.8019 41.496C73.7892 41.7499 73.7955 42.0101 73.8209 42.2767C73.859 42.5306 73.8781 42.7845 73.8781 43.0384C73.8781 43.178 73.8844 43.3113 73.8971 43.4383C73.9098 43.5652 73.9225 43.6985 73.9352 43.8381C73.9352 44.1428 73.9606 44.4411 74.0114 44.7331C74.0621 45.0124 74.1193 45.2916 74.1827 45.5709C74.2081 45.6979 74.2906 45.8502 74.4303 46.0279C74.5826 46.1929 74.7476 46.3072 74.9253 46.3707Z" fill="#236D66"/>
<path d="M69.0494 34.0888C69.1383 34.1015 69.2589 34.1205 69.4112 34.1459C69.5636 34.1713 69.7159 34.2347 69.8682 34.3363C70.0206 34.4252 70.1538 34.5648 70.2681 34.7552C70.3823 34.9329 70.4395 35.1741 70.4395 35.4788C70.4395 35.6946 70.4077 35.866 70.3443 35.9929C70.2808 36.1072 70.1983 36.196 70.0967 36.2595C70.0079 36.323 69.9127 36.3674 69.8111 36.3928C69.7222 36.4055 69.6524 36.4182 69.6016 36.4309H69.5064L69.4683 36.4499H68.3068C67.7102 36.4372 67.3484 36.4944 67.2214 36.6213C67.1453 36.6975 67.1008 36.8371 67.0882 37.0402C67.0755 37.2306 67.0755 37.4718 67.0882 37.7638V38.6397V38.7159C67.0628 39.6299 67.0374 40.5375 67.012 41.4388C66.9866 42.3401 66.9612 43.2351 66.9358 44.1237L66.8787 46.0088V46.1421C66.8787 46.2183 66.8787 46.2944 66.8787 46.3706C66.8787 46.4341 66.8723 46.4975 66.8597 46.561V46.8466V46.9037C66.8723 47.018 66.8787 47.1576 66.8787 47.3227C66.8787 47.475 66.8152 47.6146 66.6883 47.7416C66.5613 47.9066 66.3519 47.9891 66.0599 47.9891C65.7045 47.9891 65.4315 47.8876 65.2411 47.6845C65.0761 47.5194 64.9809 47.3417 64.9555 47.1513C64.9301 46.9482 64.9174 46.7958 64.9174 46.6943C64.9428 45.5391 64.9682 44.3966 64.9936 43.2668C65.019 42.1243 65.0444 40.9945 65.0697 39.8774L65.1078 38.4493V38.0304C65.1078 37.8527 65.1078 37.6749 65.1078 37.4972C65.1078 37.3195 65.1205 37.1545 65.1459 37.0021C65.1713 36.799 65.1776 36.6721 65.165 36.6213C65.165 36.5578 65.1396 36.4943 65.0888 36.4309L65.0507 36.3738C65.0253 36.3484 64.9872 36.3293 64.9365 36.3166C64.8984 36.3039 64.7905 36.2976 64.6127 36.2976H64.4985C64.3969 36.2976 64.2573 36.2912 64.0796 36.2785C63.9146 36.2659 63.7368 36.2405 63.5464 36.2024C63.356 36.1643 63.1656 36.1072 62.9752 36.031C62.7974 35.9548 62.6515 35.8533 62.5372 35.7263C62.3595 35.5359 62.2833 35.3074 62.3087 35.0408C62.3341 34.7616 62.4293 34.5521 62.5943 34.4125C62.7721 34.2728 62.9688 34.1776 63.1846 34.1268C63.4131 34.0634 63.6353 34.0316 63.8511 34.0316C64.0796 34.0316 64.2573 34.038 64.3842 34.0507H64.5175C64.6445 34.0507 64.8285 34.0507 65.0697 34.0507C65.3236 34.0507 65.5712 34.057 65.8124 34.0697C66.0536 34.0697 66.263 34.0761 66.4407 34.0888C66.6312 34.0888 66.7264 34.0888 66.7264 34.0888C66.7644 34.0888 66.8533 34.0888 66.9929 34.0888C67.1326 34.0888 67.2976 34.0888 67.488 34.0888C67.6911 34.0888 67.9133 34.0888 68.1545 34.0888C68.3957 34.0761 68.6369 34.0697 68.8781 34.0697H68.8971H68.9352H69.0304L69.0494 34.0888Z" fill="#236D66"/>
<path d="M60.4522 38.6588C60.503 39.522 60.4903 40.3916 60.4141 41.2675C60.3507 42.1307 60.2681 42.9939 60.1666 43.8572L60.0904 44.5046C60.0523 44.86 59.9889 45.2409 59.9 45.6471C59.8111 46.0533 59.6905 46.3707 59.5382 46.5992C59.3859 46.9038 59.2209 47.145 59.0431 47.3227C58.8654 47.5005 58.6686 47.6401 58.4528 47.7416C58.237 47.8432 58.0085 47.913 57.7673 47.9511C57.5262 47.9765 57.2659 47.9892 56.9866 47.9892C56.8216 47.9892 56.6439 47.9701 56.4535 47.9321C56.1234 47.8559 55.8568 47.7353 55.6537 47.5703C55.4506 47.3926 55.2856 47.1894 55.1586 46.9609C55.0317 46.7197 54.9365 46.4595 54.873 46.1802C54.8096 45.8883 54.7651 45.5963 54.7397 45.3043C54.689 44.8981 54.6572 44.4982 54.6445 44.1047C54.6318 43.7112 54.6191 43.3177 54.6064 42.9241C54.5937 42.7464 54.5874 42.5814 54.5874 42.429C54.5874 42.264 54.5811 42.099 54.5684 41.934C54.5811 41.6801 54.5874 41.4389 54.5874 41.2104C54.6001 40.9819 54.6064 40.7534 54.6064 40.5249C54.6318 39.9156 54.6572 39.3316 54.6826 38.7731C54.708 38.2018 54.7397 37.6306 54.7778 37.0593C54.8032 36.7674 54.854 36.4754 54.9301 36.1834C55.0063 35.8914 55.1079 35.6185 55.2348 35.3646C55.4506 34.9203 55.7299 34.5966 56.0726 34.3935C56.4281 34.1777 56.8089 34.0571 57.2151 34.0317C57.5833 34.0063 57.9705 34.0444 58.3767 34.146C58.7829 34.2475 59.1066 34.4887 59.3478 34.8695C59.754 35.5423 60.0269 36.2088 60.1666 36.8689C60.3189 37.529 60.4141 38.1257 60.4522 38.6588ZM57.1961 46.3707C57.3738 46.3707 57.5135 46.3516 57.615 46.3135C57.7166 46.2754 57.7927 46.231 57.8435 46.1802C57.8943 46.1168 57.9324 46.0533 57.9578 45.9898C57.9831 45.9137 58.0085 45.8438 58.0339 45.7804C58.237 45.1456 58.3957 44.4665 58.51 43.7429C58.6369 43.0193 58.7194 42.3021 58.7575 41.5912C58.8083 40.8676 58.821 40.1758 58.7956 39.5157C58.7702 38.8429 58.7067 38.2462 58.6052 37.7258C58.5163 37.2053 58.3894 36.7864 58.2243 36.469C58.072 36.139 57.8879 35.9549 57.6721 35.9168C57.6341 35.8914 57.5135 35.8914 57.3103 35.9168C57.1199 35.9422 56.9613 35.9866 56.8343 36.0501C56.7708 36.0755 56.7074 36.1263 56.6439 36.2025C56.5804 36.2786 56.5233 36.3675 56.4725 36.469C56.4344 36.5579 56.3964 36.6531 56.3583 36.7547C56.3329 36.8562 56.3202 36.9451 56.3202 37.0212C56.2821 37.7829 56.2313 38.5382 56.1679 39.2872C56.1171 40.0235 56.0853 40.7597 56.0726 41.496C56.06 41.7499 56.0663 42.0101 56.0917 42.2767C56.1298 42.5306 56.1488 42.7845 56.1488 43.0384C56.1488 43.178 56.1552 43.3113 56.1679 43.4383C56.1805 43.5652 56.1932 43.6985 56.2059 43.8381C56.2059 44.1428 56.2313 44.4411 56.2821 44.7331C56.3329 45.0124 56.39 45.2916 56.4535 45.5709C56.4789 45.6979 56.5614 45.8502 56.701 46.0279C56.8533 46.1929 57.0184 46.3072 57.1961 46.3707Z" fill="#236D66"/>
<path d="M52.3975 47.2275C52.4102 47.329 52.4102 47.4306 52.3975 47.5321C52.3975 47.621 52.3594 47.6971 52.2832 47.7606C52.169 47.913 51.8326 47.9891 51.274 47.9891C51.1344 47.9891 51.0265 47.951 50.9503 47.8749C50.8741 47.786 50.817 47.6845 50.7789 47.5702C50.7408 47.4433 50.7155 47.3163 50.7028 47.1894C50.6901 47.0497 50.6774 46.9228 50.6647 46.8085C50.6647 46.707 50.6583 46.6372 50.6456 46.5991C50.5949 46.2436 50.4996 45.9009 50.36 45.5708C50.2204 45.2408 50.0553 44.9361 49.8649 44.6568C49.6745 44.3776 49.4651 44.1364 49.2366 43.9333C49.0208 43.7175 48.8049 43.5461 48.5891 43.4191C48.1575 43.1906 47.8021 43.1335 47.5228 43.2478L47.5038 43.2668C47.4784 43.2922 47.4593 43.362 47.4466 43.4763C47.4466 43.5778 47.4466 43.7048 47.4466 43.8571C47.4466 44.0094 47.453 44.1745 47.4657 44.3522C47.4784 44.5172 47.4911 44.6759 47.5038 44.8282C47.5292 45.1329 47.5546 45.4375 47.5799 45.7422C47.6053 46.0469 47.6053 46.3135 47.5799 46.542C47.5672 46.5927 47.5609 46.6435 47.5609 46.6943C47.5736 46.7324 47.5799 46.7768 47.5799 46.8276C47.5926 46.9672 47.5863 47.1196 47.5609 47.2846C47.5482 47.4496 47.4911 47.5892 47.3895 47.7035C47.2245 47.8685 46.996 47.951 46.704 47.951C46.3994 47.9764 46.1582 47.9003 45.9804 47.7225C45.8281 47.5829 45.7393 47.4052 45.7139 47.1894C45.7012 46.9736 45.6948 46.7895 45.6948 46.6372V46.5039C45.6821 45.044 45.6885 43.5905 45.7139 42.1434C45.7393 40.6835 45.7646 39.2363 45.79 37.8019C45.8027 37.4083 45.8091 37.0212 45.8091 36.6403C45.8218 36.2468 45.8281 35.8533 45.8281 35.4598C45.8408 35.1424 45.8979 34.8949 45.9995 34.7171C46.1137 34.5267 46.2534 34.3807 46.4184 34.2792C46.5834 34.1776 46.7612 34.1142 46.9516 34.0888C47.142 34.0507 47.3261 34.0316 47.5038 34.0316C47.9608 34.0316 48.4114 34.1078 48.8557 34.2601C49.3 34.4125 49.7126 34.6283 50.0934 34.9076C50.487 35.1868 50.8297 35.5105 51.1217 35.8787C51.4263 36.2468 51.6485 36.6467 51.7881 37.0783C51.9532 37.5734 52.023 38.0621 51.9976 38.5445C51.9849 39.0142 51.9024 39.4648 51.75 39.8964C51.6104 40.3154 51.4136 40.7089 51.1598 41.077C50.9186 41.4452 50.6456 41.7625 50.341 42.0291C50.341 42.1434 50.3727 42.2893 50.4362 42.4671C50.5123 42.6321 50.6012 42.8225 50.7028 43.0383C50.817 43.2414 50.9376 43.4572 51.0645 43.6857C51.2042 43.9142 51.3375 44.1427 51.4644 44.3712C51.5787 44.5616 51.6866 44.7457 51.7881 44.9234C51.8897 45.1011 51.9849 45.2725 52.0738 45.4375C52.1245 45.5264 52.169 45.647 52.207 45.7993C52.2451 45.939 52.2769 46.0913 52.3023 46.2563C52.3403 46.4214 52.3657 46.5864 52.3784 46.7514C52.3911 46.9164 52.3975 47.0624 52.3975 47.1894V47.2275ZM47.7704 35.9929C47.7323 36.0564 47.6942 36.2087 47.6561 36.4499C47.6307 36.6911 47.6117 36.9767 47.599 37.3068C47.5863 37.6242 47.5799 37.9669 47.5799 38.335C47.5799 38.7032 47.5863 39.0523 47.599 39.3823C47.6117 39.7124 47.6307 39.998 47.6561 40.2392C47.6815 40.4804 47.7132 40.6391 47.7513 40.7152C48.0814 40.7406 48.386 40.7089 48.6653 40.62C48.9573 40.5185 49.2175 40.3598 49.446 40.144C49.6999 39.9282 49.8903 39.6679 50.0173 39.3633C50.1569 39.0459 50.2267 38.7222 50.2267 38.3922C50.2267 38.2017 50.1823 38.0113 50.0934 37.8209C50.0173 37.6178 49.9094 37.4274 49.7697 37.2497C49.6428 37.0593 49.4904 36.8815 49.3127 36.7165C49.135 36.5515 48.9573 36.4118 48.7796 36.2976C48.3353 36.0183 47.9989 35.9168 47.7704 35.9929Z" fill="#236D66"/>
<path d="M42.4131 36.1453C42.832 36.7927 43.0859 37.4782 43.1747 38.2017C43.2636 38.9253 43.1747 39.6362 42.9081 40.3344C42.3496 41.7689 41.4102 42.5178 40.09 42.5813C39.633 42.6067 39.3029 42.7336 39.0998 42.9621C38.8967 43.1779 38.8015 43.5334 38.8142 44.0285C38.8142 44.1681 38.8142 44.3204 38.8142 44.4855C38.8269 44.6378 38.8396 44.7901 38.8523 44.9425C38.8777 45.1837 38.8967 45.4312 38.9094 45.6851C38.9221 45.9263 38.9158 46.1738 38.8904 46.4277C38.8777 46.5166 38.8713 46.6499 38.8713 46.8276C38.884 46.9926 38.8713 47.164 38.8332 47.3417C38.8079 47.5067 38.738 47.6591 38.6238 47.7987C38.5222 47.9256 38.3572 47.9891 38.1287 47.9891C37.9002 47.9891 37.7225 47.9383 37.5955 47.8368C37.4813 47.7225 37.3924 47.5956 37.329 47.456C37.2782 47.3036 37.2528 47.1513 37.2528 46.999C37.2528 46.8339 37.2528 46.6943 37.2528 46.58C37.2401 46.3262 37.2338 46.1548 37.2338 46.0659C37.2338 45.9644 37.2401 45.8945 37.2528 45.8565L37.1957 42.7717C37.1703 41.5277 37.1512 40.3217 37.1385 39.1538C37.1259 37.9732 37.1132 36.7927 37.1005 35.6121C37.0878 35.3074 37.1005 35.0472 37.1385 34.8314C37.1766 34.6156 37.2655 34.4379 37.4051 34.2982C37.5321 34.1713 37.7034 34.0951 37.9193 34.0697C38.1478 34.0316 38.427 34.0189 38.7571 34.0316C39.4807 34.057 40.1662 34.2601 40.8136 34.641C41.461 35.0091 41.9941 35.5105 42.4131 36.1453ZM38.7952 39.3062C38.7698 39.6108 38.7698 39.8838 38.7952 40.1249C38.8206 40.3407 38.8586 40.5502 38.9094 40.7533C38.9729 40.9437 39.0871 41.0707 39.2522 41.1341C39.4172 41.1976 39.5632 41.2294 39.6901 41.2294C39.8171 41.2294 39.9377 41.2103 40.0519 41.1722C40.1662 41.1215 40.2677 41.0643 40.3566 41.0009C40.4581 40.9247 40.5533 40.8549 40.6422 40.7914C40.9088 40.6137 41.1055 40.4169 41.2325 40.2011C41.3594 39.9726 41.4419 39.7378 41.48 39.4966C41.5308 39.2554 41.5435 39.0078 41.5181 38.754C41.5054 38.5001 41.4737 38.2462 41.4229 37.9923C41.296 37.383 41.0865 36.9069 40.7945 36.5642C40.5026 36.2087 40.1154 35.9612 39.633 35.8215C39.3029 35.7454 39.0744 35.7581 38.9475 35.8596C38.8332 35.9612 38.7761 36.1579 38.7761 36.4499C38.7888 36.78 38.7952 37.11 38.7952 37.4401C38.7952 37.7701 38.7952 38.1002 38.7952 38.4302V39.3062Z" fill="#236D66"/>
<path fill-rule="evenodd" clip-rule="evenodd" d="M65.3404 0.287009C65.147 0.433909 64.6588 1.2474 64.2414 2.08861C63.8311 2.92982 62.977 4.53603 62.3412 5.66134L61.1908 7.7027L58.3196 7.84129C47.1638 8.38299 46.8719 8.47355 45.2123 8.98849C44.7108 9.14411 44.0844 9.33848 42.9955 9.59576C40.5765 10.1695 40.2468 10.3899 40.6808 11.0731C41.1148 11.7563 41.7617 11.8311 43.7328 11.4251C43.8353 11.404 43.9359 11.3832 44.0351 11.3627L44.0358 11.3626C46.5485 10.8434 48.1191 10.519 54.3133 10.3497L60.0168 10.1945L59.3212 12.039C58.9373 13.0521 58.4935 14.4241 58.3349 15.0879L58.047 16.2936L55.6585 16.4474C54.3453 16.5333 51.8887 16.604 50.1999 16.604C46.7222 16.6054 46.0003 16.3975 44.6356 14.9978C43.8983 14.2453 43.6605 14.122 42.7855 14.0568C41.8771 13.9875 41.7797 14.0748 41.7797 14.9327C41.7645 15.607 41.6915 16.2788 41.5613 16.9408L41.3415 17.9982C41.0285 17.9031 40.863 17.804 40.7593 17.7099C40.4788 17.0261 39.1067 16.4438 38.5469 16.6719C36.9406 17.3156 36.122 17.507 35.1526 17.7336C34.4439 17.8993 33.6545 18.0838 32.4178 18.4777C31.0629 18.899 29.6982 19.2898 28.2919 19.6515C27.9869 19.7315 27.6645 19.8329 27.3304 19.9379C26.2869 20.266 25.1286 20.6302 24.0254 20.4927C24.4866 20.1122 24.8363 19.5522 25.1871 18.9903C25.4459 18.576 25.7053 18.1605 26.0105 17.8153C26.1485 17.6722 26.3793 17.4996 26.6384 17.3058C27.3585 16.7672 28.2975 16.0648 28.0735 15.379C27.8843 14.8066 26.7714 14.115 26.215 13.9654C25.1282 13.6685 24.536 14.3648 24.0041 14.9902C23.8879 15.1269 23.7746 15.2602 23.6596 15.379C23.5062 15.5269 23.3238 15.689 23.1267 15.8641C21.9205 16.9361 20.1644 18.4966 21.1556 20.2835C22.128 21.9978 24.7404 22.5091 26.3249 22.5992C30.0676 22.7693 31.4647 22.1897 34.2473 21.0353C34.4123 20.9669 34.5821 20.8964 34.7576 20.8239C35.0332 20.7099 35.3094 20.5949 35.5861 20.479C36.6813 20.0407 37.4156 19.7554 37.5968 19.7554C37.6691 19.7554 38.4272 20.2044 38.6915 20.7394C39.2953 21.9659 40.5347 22.771 41.8145 22.771C42.9733 22.7697 43.5798 22.1446 44.4576 20.0506C45.1962 18.2892 45.2018 18.2864 46.2006 18.6495C47.9019 19.269 50.1554 19.5171 54.0935 19.5171H57.8731L58.0233 20.1587C58.1844 20.6833 58.4155 21.1839 58.7105 21.6471C59.4273 22.7789 60.4227 23.2385 62.2634 23.2709C62.4116 23.2884 62.5623 23.2977 62.7154 23.2977C66.278 23.0205 69.9852 22.1239 72.848 20.6798C72.9684 20.6162 73.1007 20.5493 73.2418 20.479C74.1096 21.6143 76.1217 22.2068 77.2564 22.1806C80.8342 22.1515 84.0935 21.3394 87.0676 20.1351C88.3418 23.2644 93.1063 22.7779 95.1275 22.3622C96.809 22.0091 98.3073 21.3987 99.7251 20.6778C100.412 21.3753 101.544 21.8476 102.361 21.9409C105.21 22.2126 108.128 20.5695 110.311 19.3401L110.313 19.3392C110.546 19.208 110.771 19.0816 110.986 18.9627C111.651 21.0578 113.818 21.4729 115.781 21.3422C115.848 21.3394 115.917 21.3359 115.987 21.3316C116.501 21.3066 116.956 21.2434 117.343 21.1535C117.668 21.0876 118.002 21.0024 118.341 20.8938C120.569 20.1791 121.722 19.5914 121.911 19.4905C122.986 19.0969 125.359 17.6942 126.253 15.2324C127.366 10.7971 129.183 6.89007 131.42 4.12155C132.122 3.25346 132.188 2.94173 131.802 2.33279C131.184 1.35779 129.816 0.715544 129.086 1.05757C127.799 1.66 123.464 10.3444 122.31 14.6333C122.099 15.4195 121.367 16.6233 120.694 17.042C120.519 17.1511 120.324 17.2605 120.113 17.3692C118.504 18.0822 116.431 18.8726 114.738 19.0935C114.548 19.0957 114.35 19.1006 114.145 19.1081C114.256 18.5988 114.496 18.1766 114.723 17.7765C114.938 17.3966 115.142 17.0367 115.214 16.6411C115.316 15.9792 114.917 15.4377 114.125 14.9563C113.189 14.3792 112.832 14.4654 112.205 14.6166C112.113 14.6388 112.015 14.6624 111.909 14.6855C111.169 14.857 110.249 14.7939 109.32 14.7302C108.618 14.6822 107.912 14.6338 107.273 14.6855C105.279 14.8582 103.509 15.4182 102.004 16.3099C101.474 16.6195 100.976 16.97 100.513 17.3589L100.441 17.4052C100.172 17.5775 99.9197 17.739 99.6889 17.8526C96.8817 19.1761 93.6085 20.5301 90.0209 20.5301C90.1936 20.2934 90.2566 19.9351 90.3175 19.5889C90.3571 19.3637 90.3958 19.1436 90.4632 18.9655C90.5095 18.8386 90.5692 18.7247 90.6268 18.6151C90.8012 18.2827 90.9551 17.9894 90.6496 17.4923C89.7844 16.1079 88.0024 16.288 87.197 16.7398C83.8378 18.4921 80.1678 19.5748 76.3925 19.9272C76.9114 19.0889 77.6137 18.3783 78.4471 17.8485C78.5883 17.7556 78.7547 17.6827 78.9167 17.6116C79.3834 17.4069 79.8141 17.2179 79.5044 16.6151C78.6795 14.9604 76.5859 15.2611 75.7373 15.7725C75.2576 16.0627 74.6105 16.484 74.0469 17.0034C72.1555 18.2643 69.7363 18.9863 67.3854 19.688L67.3827 19.6888C67.2865 19.7175 67.1904 19.7462 67.0946 19.7749C66.8853 19.8354 66.6732 19.8977 66.4585 19.9608C63.2693 20.8222 61.5728 20.0356 61.4356 19.9536C60.8277 19.5933 61.4231 16.64 62.7294 13.544L64.1357 10.2L67.1961 10.3635C75.3645 10.7987 78.7838 11.2089 79.5906 11.8519C81.0943 13.0479 82.9306 12.7527 82.2489 11.4237C81.0915 9.15784 77.4191 8.06162 70.1021 7.79277L65.5115 7.6237L67.1363 4.88665C68.4536 2.65958 68.6804 2.01932 68.3396 1.483C67.8944 0.780372 66.6758 -0.0123273 66.061 0.000145326C65.7987 0.0271356 65.5491 0.126475 65.3404 0.287009ZM104.114 18.7817C104.05 18.8296 103.987 18.8782 103.925 18.9276C105.352 18.4253 106.67 17.7778 107.968 17.0708C106.574 17.3609 105.26 17.9447 104.114 18.7817Z" fill="url(#paint0_linear_6002_1049)"/>
<path fill-rule="evenodd" clip-rule="evenodd" d="M21.903 14.0336C24.4471 13.1459 26.8446 11.6312 28.6772 9.98656L28.6786 9.98934C28.7499 9.9226 28.794 9.8319 28.8023 9.73473C28.8106 9.63756 28.7825 9.54078 28.7234 9.46301C28.6643 9.38524 28.5785 9.33199 28.4824 9.31351C28.3863 9.29504 28.2867 9.31264 28.2028 9.36293C26.3646 10.4619 24.3359 11.332 22.2563 11.863C22.3184 11.0722 22.3053 10.2763 22.2031 9.48488C21.968 7.72763 21.3712 5.97175 20.1304 4.63441C18.756 3.11413 16.4997 2.54593 14.5522 3.15431C12.2124 3.85001 10.2621 5.95789 10.187 8.47321C10.0924 11.7854 13.1778 14.485 16.3174 14.7885C16.6837 14.8286 17.0532 14.8481 17.4246 14.8486C16.8457 16.1137 16.0945 17.3224 15.2907 18.4415C12.8222 14.3697 9.12158 11.0346 4.72283 9.21049C3.69838 8.77708 2.63627 8.43797 1.54978 8.19742C1.17976 8.1212 0.827815 8.0533 0.436923 8.01034C0.34201 8.00137 0.247009 8.02654 0.169104 8.08129C0.091199 8.13604 0.0355307 8.21675 0.0121705 8.30884C-0.0111897 8.40092 -0.000701569 8.4983 0.0417385 8.58335C0.0841786 8.6684 0.155769 8.73552 0.243561 8.77256C2.6994 9.98689 4.95179 11.5726 6.92073 13.4734C9.47226 15.9281 11.4824 18.8855 12.8231 22.1571C13.4143 23.5665 15.2686 24.082 16.5094 23.1757C16.6999 23.0353 16.874 22.8739 17.0283 22.6948C18.1408 21.4889 19.1201 20.1676 19.9495 18.7535C20.7969 17.3083 21.495 15.7032 21.903 14.0336ZM16.3977 20.4891L16.3981 20.4899L16.4301 20.5551C16.4198 20.5327 16.409 20.5107 16.3977 20.4891ZM18.2917 12.3641C18.486 11.5342 18.5824 10.6905 18.5515 9.84104C18.4694 8.3166 17.8824 6.163 16.0698 6.12974C14.5091 6.11172 13.0735 7.58627 13.52 9.15228C14.1809 11.4378 16.1548 12.2714 18.2917 12.3641Z" fill="url(#paint1_linear_6002_1049)"/>
<path d="M29.8832 8.43163C30.0432 9.17722 30.2894 9.64979 31.0086 9.55417C31.6262 9.4724 32.1354 8.85292 32.1354 8.23345C32.1354 7.61397 31.6235 7.21346 31.0086 7.31047C30.2282 7.43381 29.7525 7.82602 29.8832 8.43163Z" fill="url(#paint2_linear_6002_1049)"/>
<path d="M125.906 20.1137C124.998 19.768 124.123 19.4348 125.063 18.8861C125.727 18.4983 126.824 18.1609 128.014 17.7946C129.169 17.4393 130.413 17.0567 131.435 16.5746C135.836 14.5006 137.938 14.0699 139.477 14.9263C141.416 16.0042 141.11 17.2709 138.795 17.7521C137.989 17.9199 136.165 18.6245 134.742 19.3178C130.231 21.5154 128.883 21.7255 126.883 20.5404C126.624 20.3871 126.262 20.2494 125.906 20.1137Z" fill="url(#paint3_linear_6002_1049)"/>
<defs>
<linearGradient id="paint0_linear_6002_1049" x1="0" y1="0" x2="7.71527" y2="45.9605" gradientUnits="userSpaceOnUse">
<stop stop-color="#44BCC3"/>
<stop offset="1" stop-color="#236D66"/>
</linearGradient>
<linearGradient id="paint1_linear_6002_1049" x1="0" y1="0" x2="7.71527" y2="45.9605" gradientUnits="userSpaceOnUse">
<stop stop-color="#44BCC3"/>
<stop offset="1" stop-color="#236D66"/>
</linearGradient>
<linearGradient id="paint2_linear_6002_1049" x1="0" y1="0" x2="7.71527" y2="45.9605" gradientUnits="userSpaceOnUse">
<stop stop-color="#44BCC3"/>
<stop offset="1" stop-color="#236D66"/>
</linearGradient>
<linearGradient id="paint3_linear_6002_1049" x1="0" y1="0" x2="7.71527" y2="45.9605" gradientUnits="userSpaceOnUse">
<stop stop-color="#44BCC3"/>
<stop offset="1" stop-color="#236D66"/>
</linearGradient>
</defs>
</svg>
